# xmcd
#
# Track frame offsets: 
#        150
#        16499
#        31050
#        43583
#        59685
#        77058
#        89502
#        105922
#        125264
#        142736
#
# Disc length: 2221 seconds
#
# Revision: 0
# Processed by: cddbd v1.5.2PL0 Copyright (c) Steve Scherf et al.
# Submitted via: ExactAudioCopy v0.99pb4
#
DISCID=7508ab0a
DTITLE=Various Artist - Ten Out Of Tenn Christmas
DYEAR=2008
DGENRE=Christmas/Holiday
TTITLE0=Butterfly Boucher - Cinnamon and Chocolate
TTITLE1=Griffin House - O Holy Night
TTITLE2=Jeremy Lister - Santa's Lost His Mojo
TTITLE3=Trent Dabbs - Raise The Tree
TTITLE4=Katie Herzig - Silent Night
TTITLE5=KS Rhoads - Why Are Mom and Daddy Fighting On Christmas
TTITLE6=Erin McCarley - Little Drummer Boy
TTITLE7=Andy Davis - Christmas Time
TTITLE8=Tyler James - Sentimental Christmas
TTITLE9=Matthew Perryman Jones - O Come, O Come, Emmanuel
EXTD=
EXTT0=
EXTT1=
EXTT2=
EXTT3=
EXTT4=
EXTT5=
EXTT6=
EXTT7=
EXTT8=
EXTT9=
PLAYORDER=
